# xmcd
#
# Track frame offsets:
#	150
#	13382
#	25032
#	38670
#	49750
#	64442
#	76102
#	95547
#	113845
#	133402
#	157162
#	169697
#	191262
#	202235
#	220587
#	240792
#	262810
#	275437
#
# Disc length: 3952 seconds
# Revision: 6
# Processed by: cddbd v1.5.2PL0 Copyright (c) Steve Scherf et al.
# Submitted via: dBpowerAMP V12.0
#
DISCID=f60f6e12
DTITLE=Various Artist - The best blues album in the world... ever! [CD2)
DYEAR=2000
DGENRE=Blues
TTITLE0=Muddy Waters - Mannish boy
TTITLE1=Little Walter - My babe
TTITLE2=Koko Taylor - Wang dang doodle
TTITLE3=Howlin' Wolf - Little red rooster
TTITLE4=Chuck Berry - Reelin' and rockin'
TTITLE5=Etta James - I'd rather go blind
TTITLE6=John Lee Hooker - Boom boom
TTITLE7=Gary Moore - Still got the blues
TTITLE8=Johnny Winter - Shame shame shame
TTITLE9=Jon Cleary - Help me somebody
TTITLE10=Albert King - Born under a bad sign
TTITLE11=John Lee Hooker - Chill out (things gonna change)
TTITLE12=Lightnin' Hopkins - Shotgun blues
TTITLE13=Freddie King - Me and my guitar
TTITLE14=Buddy Guy - Damn right, I've got the blues
TTITLE15=Ben Harper - Ground on down
TTITLE16=J.J. Cale - Low down
TTITLE17=John Mayall and The Bluesbreakers - Spinning coin
EXTD=
EXTT0=
EXTT1=
EXTT2=
EXTT3=
EXTT4=
EXTT5=
EXTT6=
EXTT7=
EXTT8=
EXTT9=
EXTT10=
EXTT11=
EXTT12=
EXTT13=
EXTT14=
EXTT15=
EXTT16=
EXTT17=
PLAYORDER=
